<?xml version="1.0" encoding="UTF-8"?> <svg xmlns="http://www.w3.org/2000/svg" width="520" height="521" viewBox="0 0 520 521" fill="none"><mask id="mask0_16_350" style="mask-type:luminance" maskUnits="userSpaceOnUse" x="0" y="0" width="520" height="521"><path d="M520 0H0V520.508H520V0Z" fill="white"></path></mask><g mask="url(#mask0_16_350)"><path d="M356.363 229.445C350.05 226.627 343.733 223.818 337.426 220.995C312.828 209.975 288.245 198.936 263.626 187.967C262.021 187.251 261.376 186.454 261.381 184.625C261.488 147.057 261.523 109.49 261.569 71.9215C261.569 71.3731 261.569 70.8247 262.128 70.1086C293.744 123.038 325.356 175.962 356.972 228.891C356.769 229.074 356.566 229.262 356.368 229.445H356.363Z" fill="#88FBF5"></path><path d="M260.03 70.7435C260.03 78.5739 260.041 86.4095 260.03 94.2399C259.995 124.018 259.924 153.796 259.964 183.574C259.964 185.936 259.274 187.032 257.05 188.028C235.402 197.696 213.825 207.528 192.227 217.308C183.041 221.467 173.845 225.616 164.125 229.369C195.873 176.424 227.617 123.48 259.365 70.5353C259.589 70.6064 259.807 70.6724 260.03 70.7435Z" fill="#CEBEFA"></path><path d="M259.843 188.378V288.6C227.678 269.912 195.665 251.321 163.099 232.4C195.518 217.648 227.429 203.125 259.843 188.373V188.378Z" fill="#76A6FB"></path><path d="M261.62 288.763V188.713C293.703 203.12 325.665 217.471 358.216 232.081C325.787 251.108 293.957 269.786 261.62 288.758V288.763Z" fill="#CFABFD"></path><path d="M259.193 388.461C227.536 343.87 196.041 299.508 164.115 254.531C165.283 254.973 165.877 255.11 166.375 255.404C193.929 271.593 221.472 287.798 249.016 303.997C252.149 305.84 255.343 307.582 258.411 309.522C259.116 309.969 259.873 311.03 259.873 311.802C259.832 337.101 259.706 362.405 259.579 387.705C259.579 387.842 259.441 387.974 259.188 388.461H259.193Z" fill="#76A6FB"></path><path d="M355.982 255.206C324.655 299.696 293.333 344.18 262.006 388.669C261.767 388.609 261.528 388.548 261.29 388.492C261.29 386.191 261.29 383.891 261.29 381.591C261.346 358.673 261.412 335.75 261.422 312.833C261.422 311.253 261.782 310.273 263.255 309.4C293.444 291.586 323.593 273.711 353.752 255.846C354.367 255.485 355.007 255.171 355.636 254.835C355.748 254.957 355.865 255.079 355.977 255.206H355.982Z" fill="#CFABFD"></path><path d="M258.299 307.409C249.453 302.281 240.591 297.182 231.766 292.018C211.697 280.282 191.643 268.526 171.605 256.735C170.681 256.192 169.985 255.252 168.69 254.038C166.349 254.643 164.298 252.434 161.962 250.91C166.05 247.02 165.765 242.668 163.475 237.992C162.901 236.824 162.825 235.412 162.52 234.112C166.557 236.392 170.64 238.606 174.601 241.018C175.256 241.414 175.576 242.623 175.744 243.517C176.109 245.472 176.272 247.457 176.566 249.798C176.297 249.95 175.627 250.321 174.601 250.9C176.861 252.2 178.913 253.383 180.964 254.561C181.096 254.343 181.223 254.13 181.355 253.911C179.893 253.023 178.43 252.134 176.612 251.027C177.882 250.509 178.77 250.149 179.73 249.758C178.973 249.057 177.846 248.508 177.745 247.813C177.552 246.492 177.948 245.086 178.1 243.709C179.146 244.065 180.263 244.293 181.223 244.811C183.437 246 185.58 247.33 188.246 248.889C185.936 249.28 184.168 249.575 182.401 249.874L182.447 250.27C182.99 250.27 183.559 250.372 184.082 250.255C188.759 249.189 192.522 251.159 196.376 253.505C204.374 258.375 212.55 262.956 220.619 268.318H211.453C211.433 268.618 211.413 268.912 211.392 269.212C212.139 269.43 212.87 269.755 213.632 269.842C214.632 269.953 215.709 270.085 216.663 269.842C221.762 268.536 225.9 270.481 230.136 273.092C237.966 277.926 246.015 282.405 254.003 286.965C255.293 287.701 255.821 288.534 256.039 290.073C256.831 295.73 257.893 301.346 258.852 306.978C258.67 307.12 258.487 307.262 258.304 307.404L258.299 307.409Z" fill="#ECBCFF"></path><path d="M100.059 207.609C99.7241 207.517 99.389 207.431 99.0538 207.34C98.9573 207.858 98.8456 208.376 98.7999 208.899C98.7999 208.944 99.389 209.117 99.4093 209.076C99.6581 208.604 99.8511 208.101 100.059 207.609Z" fill="#FAECFC"></path><path d="M162.52 234.117C162.825 235.417 162.906 236.828 163.475 237.996C165.765 242.673 166.05 247.025 161.962 250.915C161.454 250.468 160.596 250.082 160.499 249.559C159.839 246.066 158.681 242.628 159.443 238.956C159.88 236.844 159.951 234.66 160.21 232.268C161.129 233.005 161.82 233.563 162.515 234.117H162.52Z" fill="#FAECFC"></path><path d="M330.632 338.315C331.099 337.766 331.566 337.223 332.038 336.675C331.571 337.223 331.104 337.766 330.632 338.315Z" fill="#F0C4FF"></path><path d="M364.99 201.104C365.188 201.703 365.386 202.302 365.589 202.897C365.391 202.297 365.193 201.698 364.99 201.104Z" fill="#FADCFF"></path><path d="M447.205 243.628C446.479 243.628 445.753 243.628 445.021 243.623C445.748 243.623 446.474 243.623 447.205 243.628Z" fill="#F8DCFF"></path><path d="M277.073 401.741C277.469 401.918 277.865 402.096 278.256 402.274C277.86 402.096 277.464 401.918 277.073 401.741Z" fill="#F8DCFF"></path><path d="M357.784 234.371C357.967 234.335 358.15 234.3 358.333 234.264C358.318 234.457 358.302 234.65 358.287 234.843C358.12 234.686 357.952 234.528 357.784 234.371Z" fill="#ECBCFF"></path><path d="M258.847 306.978C258.852 307.181 258.862 307.389 258.868 307.592C258.68 307.531 258.487 307.465 258.299 307.404C258.482 307.262 258.664 307.12 258.847 306.978Z" fill="#ECBCFF"></path><path d="M132.702 252.388C132.818 252.5 132.935 252.611 133.047 252.723C132.93 252.611 132.813 252.5 132.702 252.388Z" fill="#F0C4FF"></path><path d="M218.644 516.963C218.852 516.527 219.065 516.09 219.263 515.648C219.294 515.577 219.289 515.48 219.263 515.409C219.258 515.384 219.141 515.394 219.075 515.394C218.933 515.922 218.786 516.44 218.644 516.958V516.963Z" fill="#2A1C41"></path><path d="M218.116 519.228C218.09 518.893 218.07 518.558 218.045 518.228C218.07 518.563 218.09 518.893 218.116 519.228Z" fill="#2A1C41"></path><path d="M298.543 416.391C298.381 417.072 298.223 417.752 298.061 418.427C298.223 417.747 298.381 417.067 298.543 416.391Z" fill="#FDCFFF"></path><path d="M432.154 294.054C432.341 293.541 432.534 293.028 432.722 292.51C432.534 293.023 432.341 293.536 432.154 294.054Z" fill="#F8DCFF"></path><path d="M144.332 214.41C144.332 214.41 144.3 214.379 144.29 214.368L144.332 214.41Z" fill="#2A1C41"></path><path d="M232.436 425.364C232.339 424.618 232.243 423.866 232.146 423.12C232.243 423.866 232.339 424.613 232.436 425.364Z" fill="#76A6FB"></path><path d="M151.11 407.042C151.237 407.118 151.409 407.164 151.47 407.276C151.511 407.352 151.404 407.509 151.364 407.631C151.237 407.565 151.054 407.535 150.998 407.428C150.952 407.342 151.064 407.179 151.11 407.037V407.042Z" fill="#FDCFFF"></path><path d="M191.415 436.15C191.263 436.338 191.105 436.526 190.953 436.719C191.105 436.531 191.263 436.343 191.415 436.15Z" fill="#F0C4FF"></path><path d="M324.005 442.33C324.289 442.752 324.568 443.173 324.848 443.595C324.563 443.173 324.284 442.752 324.005 442.33Z" fill="#76A6FB"></path><path d="M100.059 207.604C99.851 208.096 99.658 208.599 99.4092 209.071C99.3889 209.112 98.7947 208.934 98.7998 208.894C98.8506 208.371 98.9623 207.853 99.0537 207.335C99.3889 207.426 99.724 207.512 100.059 207.604Z" fill="#FEF2FF"></path><path d="M110.139 211.768C109.992 211.941 109.845 212.118 109.698 212.296C109.845 212.124 109.992 211.946 110.139 211.768Z" fill="#FEF2FF"></path><path d="M213.159 390.477C213.088 390.604 213.048 390.782 212.941 390.828C212.855 390.868 212.697 390.757 212.57 390.711C212.646 390.589 212.692 390.421 212.799 390.361C212.87 390.32 213.027 390.432 213.154 390.477H213.159Z" fill="#F0C4FF"></path><path d="M148.918 231.75C151.125 228.338 153.346 224.94 155.541 221.528C168.118 201.979 180.682 182.417 193.246 162.855C196.016 158.533 198.786 154.225 201.569 149.903C219.913 121.336 238.271 92.7696 256.628 64.2028C256.99 63.6409 257.338 63.0655 257.752 62.5437C258.261 61.9014 258.769 61.9014 259.291 62.5437C259.786 63.1726 260.241 63.8416 260.683 64.5106C274.545 85.9859 288.406 107.475 302.268 128.963C305.801 134.436 309.306 139.922 312.839 145.407C336.134 181.628 359.429 217.835 382.71 254.055C383.968 256.008 385.146 258.002 386.376 259.969C386.657 260.411 387.005 260.825 387.326 261.24C387.46 261.561 387.567 261.896 387.755 262.19C388.41 263.247 389.106 264.291 389.788 265.334C390.136 265.87 390.27 266.365 389.762 266.9C387.862 268.894 385.975 270.901 384.062 272.894C378.964 278.246 373.866 283.572 368.781 288.937C367.658 290.128 366.627 291.413 365.57 292.644L365.503 292.71C365.289 292.924 365.089 293.139 364.874 293.353C364.353 293.901 363.831 294.436 363.296 294.985C363.215 295.065 363.122 295.159 363.041 295.239L363.028 295.253C362.948 295.333 362.867 295.427 362.787 295.507L362.774 295.52C361.851 296.484 360.927 297.434 360.017 298.397C359.067 299.401 358.131 300.404 357.167 301.408C355.281 303.374 353.381 305.315 351.494 307.295C346.758 312.272 342.034 317.25 337.325 322.254C333.23 326.603 329.163 330.991 325.082 335.34C321.175 339.501 317.241 343.636 313.334 347.797C309.52 351.864 305.734 355.945 301.92 360.013C298.442 363.719 294.936 367.399 291.457 371.105C287.336 375.494 283.215 379.883 279.094 384.271C277.689 385.77 276.284 387.255 274.866 388.74C272.243 391.483 269.607 394.199 266.998 396.956C265.152 398.896 263.345 400.876 261.526 402.83C260.776 403.646 260.749 403.646 259.719 403.137C259.09 402.509 258.461 401.893 257.819 401.264C256.709 400.113 255.625 398.936 254.501 397.799C250.674 393.865 246.821 389.958 243.007 386.024C240.278 383.214 237.588 380.338 234.845 377.541C230.162 372.764 225.439 368.028 220.743 363.251C218.374 360.829 216.06 358.354 213.691 355.932C209.864 351.998 205.998 348.105 202.157 344.184C199.508 341.481 196.859 338.765 194.21 336.049C194.022 335.862 193.795 335.714 193.594 335.554H193.581C193.42 335.38 193.246 335.206 193.086 335.032V335.005C192.377 334.269 191.654 333.547 190.958 332.798C189.246 330.978 187.573 329.145 185.82 327.352C183.077 324.542 180.294 321.799 177.551 319.003C172.306 313.65 167.088 308.298 161.87 302.92C158.11 299.053 154.39 295.146 150.644 291.279C148.222 288.777 145.773 286.315 143.365 283.813C140.274 280.601 137.21 277.363 134.119 274.152C133.691 273.71 133.182 273.349 132.701 272.948C132.446 272.64 132.206 272.332 131.925 272.038C130.533 270.539 129.128 269.054 127.763 267.529C126.84 266.499 126.854 265.95 127.603 264.826C128.646 263.287 129.677 261.749 130.694 260.196C132.192 257.882 133.677 255.553 135.176 253.239C136.273 251.526 137.384 249.813 138.481 248.087C138.561 248.047 138.601 247.967 138.601 247.873C138.842 247.552 139.096 247.258 139.311 246.923C141.759 243.11 144.208 239.297 146.643 235.47C147.432 234.239 148.182 232.981 148.958 231.737L148.918 231.75ZM213.598 353.189C213.718 353.269 213.852 353.35 213.972 353.443C214.2 353.764 214.387 354.112 214.655 354.393C215.912 355.705 217.197 357.002 218.468 358.314C220.301 360.2 222.121 362.1 223.967 363.974C229.012 369.138 234.069 374.303 239.127 379.454C239.876 380.217 240.652 380.953 241.388 381.729C242.847 383.241 244.265 384.78 245.737 386.265C248.801 389.383 251.878 392.487 254.956 395.604C256.669 397.344 258.381 399.097 260.107 400.836C260.375 400.89 260.683 401.077 260.883 400.983C261.191 400.849 261.419 400.528 261.673 400.274C263.921 397.933 266.168 395.578 268.403 393.223C270.089 391.443 271.788 389.69 273.447 387.884C276.632 384.405 279.749 380.886 282.974 377.434C285.824 374.37 288.768 371.4 291.658 368.376C292.581 367.412 293.451 366.395 294.374 365.432C297.518 362.154 300.676 358.889 303.807 355.611C304.048 355.357 304.195 355.035 304.382 354.741C304.891 354.206 305.413 353.657 305.921 353.122C310.096 348.68 314.284 344.224 318.458 339.782C320.171 337.962 321.884 336.156 323.583 334.336C327.851 329.787 332.12 325.238 336.401 320.702C340.964 315.872 345.527 311.055 350.103 306.238C353.14 303.04 356.231 299.882 359.268 296.698C361.382 294.477 363.47 292.215 365.584 289.981C369.009 286.355 372.434 282.729 375.886 279.116C379.9 274.928 383.928 270.767 387.955 266.606C388.41 266.097 387.862 265.789 387.661 265.468C385.815 262.471 383.955 259.474 382.055 256.517C370.227 238.079 358.385 219.641 346.53 201.216C334.22 182.083 321.897 162.949 309.574 143.815C304.53 135.974 299.485 128.12 294.468 120.266C282.921 102.176 271.373 84.0859 259.826 65.9824C259.505 65.2197 259.465 64.2697 258.421 63.7747C258.087 64.6176 257.766 65.4071 257.445 66.1965C239.689 93.9203 221.974 121.684 204.164 149.368C180.87 185.575 157.508 221.742 134.159 257.922C132.54 260.437 130.894 262.926 129.262 265.428C129.075 265.722 128.914 266.03 128.7 266.391C129.035 266.686 129.329 266.953 129.623 267.208C131.323 268.92 133.022 270.606 134.708 272.332C138.601 276.32 142.508 280.294 146.389 284.308C149.948 287.987 153.467 291.707 157.013 295.4C160.505 299.026 164.037 302.612 167.543 306.224C170.741 309.516 173.952 312.808 177.15 316.099C181.472 320.541 185.793 324.984 190.129 329.412C191.815 331.138 193.527 332.824 195.213 334.55C196.618 335.982 197.996 337.441 199.388 338.886C202.559 342.15 205.73 345.402 208.914 348.64C210.44 350.192 212.019 351.69 213.571 353.216L213.598 353.189Z" fill="#2C469B"></path><path d="M359.977 298.41C360.901 297.447 361.824 296.497 362.734 295.534C362.506 295.989 362.359 296.497 362.051 296.885C361.636 297.42 361.115 297.875 360.606 298.317C360.472 298.437 360.191 298.384 359.977 298.41Z" fill="#D0DAF6"></path><path d="M363.282 294.972C363.804 294.423 364.326 293.888 364.861 293.339C364.727 294.583 364.54 294.771 363.282 294.972Z" fill="#D0DAF6"></path><path d="M364.848 293.353C365.062 293.139 365.262 292.925 365.477 292.71C365.758 293.393 365.262 293.339 364.848 293.353Z" fill="#D0DAF6"></path><path d="M129.623 267.181C129.329 266.927 129.034 266.659 128.7 266.365C128.914 266.003 129.075 265.696 129.262 265.401C130.894 262.899 132.54 260.41 134.159 257.895C157.494 221.715 180.869 185.548 204.164 149.341C221.974 121.644 239.689 93.8935 257.445 66.1697C257.552 66.4908 257.739 66.7985 257.752 67.1197C257.833 69.7422 257.926 72.3781 257.94 75.0006C258.047 93.3717 258.14 111.743 258.207 130.114C258.261 147.414 258.274 164.728 258.314 182.029C258.314 182.471 258.301 182.926 258.287 183.367C258.033 183.113 257.766 182.885 257.525 182.618C254.3 179.045 251.076 175.473 247.851 171.9C244.426 168.1 240.987 164.287 237.548 160.487C232.477 154.867 227.393 149.248 222.321 143.628C221.532 142.731 220.743 141.835 219.953 140.938L219.913 140.885L219.967 140.925C220.676 141.915 221.371 142.905 222.081 143.895C222.228 144.123 222.362 144.35 222.509 144.564C230.457 155.309 238.418 166.053 246.379 176.811C248.413 179.567 250.433 182.35 252.454 185.12C251.731 185.12 251.53 185.789 251.209 186.217C248.319 190.044 245.456 193.911 242.592 197.764C237.026 205.257 231.474 212.777 225.907 220.27C220.047 228.151 214.146 236.018 208.272 243.899C203.228 250.67 198.183 257.453 193.139 264.237C192.791 264.706 192.403 264.946 191.801 264.96C189.179 265.027 186.556 265.12 183.934 265.227C181.672 265.308 179.398 265.401 177.136 265.495C174.474 265.589 171.798 265.669 169.135 265.776C167.008 265.856 164.867 265.95 162.739 266.03C160.251 266.124 157.762 266.218 155.273 266.298C153.012 266.378 150.737 266.485 148.476 266.565C145.412 266.672 142.334 266.766 139.27 266.846C138.2 266.873 137.129 266.846 136.059 266.873C135.725 266.873 135.39 267.02 135.056 267.101C133.249 267.127 131.443 267.168 129.637 267.194L129.623 267.181Z" fill="#F0F7FD"></path><path d="M259.826 65.9689C271.373 84.059 282.907 102.162 294.468 120.252C299.485 128.107 304.53 135.961 309.574 143.802C321.884 162.935 334.22 182.069 346.53 201.203C358.385 219.627 370.213 238.065 382.055 256.503C383.955 259.474 385.814 262.458 387.661 265.455C387.862 265.776 388.397 266.084 387.955 266.592C386.417 266.579 384.891 266.565 383.353 266.552C383.245 265.883 382.724 266.057 382.309 266.03C380.529 265.936 378.763 265.843 376.984 265.762C374.495 265.655 372.006 265.589 369.517 265.495C367.203 265.401 364.901 265.308 362.586 265.227C362.546 265.227 362.493 265.227 362.453 265.227C360.151 265.053 357.863 264.866 355.562 264.705C353.876 264.598 352.19 264.518 350.504 264.438C348.591 264.344 346.691 264.264 344.777 264.157C343.185 264.077 341.593 263.956 339.987 263.903C337.405 263.796 334.836 263.675 332.253 263.648C331.384 263.648 330.808 263.314 330.313 262.698C329.109 261.227 327.891 259.755 326.701 258.256C325.095 256.249 323.543 254.202 321.924 252.195C319.596 249.291 317.227 246.415 314.899 243.498C312.571 240.594 310.296 237.637 307.955 234.734C305.56 231.763 303.125 228.833 300.73 225.849C298.401 222.946 296.113 219.989 293.799 217.085C291.47 214.168 289.102 211.305 286.774 208.388C284.111 205.056 281.502 201.698 278.84 198.366C275.668 194.379 272.484 190.392 269.273 186.418C268.671 185.668 267.948 184.999 267.292 184.29C267.533 183.916 267.774 183.541 268.042 183.18C269.928 180.637 271.815 178.095 273.688 175.553C279.402 167.819 285.128 160.072 290.842 152.338C292.849 149.609 294.842 146.879 296.836 144.15C297.532 143.159 298.241 142.169 298.937 141.179C298.963 141.179 299.004 141.166 299.03 141.139C299.044 141.139 299.044 141.099 299.057 141.072C299.017 141.112 298.99 141.152 298.95 141.179C298.147 142.062 297.331 142.945 296.528 143.828C295.378 145.059 294.2 146.277 293.076 147.535C289.169 151.857 285.275 156.205 281.382 160.527C279.468 162.641 277.542 164.742 275.642 166.856C272.752 170.067 269.888 173.292 266.998 176.49C264.978 178.737 262.944 180.985 260.91 183.22C260.83 182.845 260.669 182.471 260.669 182.096C260.509 174.79 260.736 167.471 260.442 160.166C260.094 151.121 260.509 142.062 260.174 133.017C259.826 123.879 260.254 114.74 259.907 105.601C259.559 96.4223 260.08 87.2301 259.626 78.0512C259.452 74.4386 259.585 70.8259 259.599 67.2133C259.599 66.7851 259.746 66.3703 259.813 65.9421L259.826 65.9689Z" fill="#B6D1FD"></path><path d="M260.094 400.836C258.381 399.096 256.669 397.344 254.942 395.604C251.878 392.487 248.788 389.396 245.723 386.265C244.252 384.766 242.833 383.228 241.375 381.729C240.626 380.953 239.863 380.217 239.114 379.454C234.056 374.29 229.012 369.138 223.954 363.973C222.121 362.087 220.288 360.2 218.455 358.314C217.183 357.002 215.899 355.718 214.641 354.393C214.374 354.112 214.186 353.764 213.959 353.443C213.905 352.747 213.865 352.038 213.785 351.342C213.571 349.496 213.33 347.65 213.102 345.803C212.808 343.515 212.5 341.24 212.193 338.952C212.045 337.815 211.898 336.664 211.738 335.527C211.443 333.426 211.149 331.312 210.868 329.212C210.627 327.419 210.4 325.612 210.159 323.806C209.945 322.187 209.731 320.555 209.517 318.936C209.276 317.049 209.035 315.162 208.781 313.276C208.58 311.777 208.366 310.292 208.179 308.793C207.938 306.907 207.697 305.02 207.456 303.133C207.162 300.805 206.854 298.477 206.56 296.149C206.426 295.092 206.359 294.035 206.198 292.978C205.891 290.917 205.503 288.87 205.235 286.81C204.82 283.692 204.512 280.561 204.111 277.443C203.79 274.901 203.415 272.359 203.067 269.817C202.987 269.255 202.947 268.679 202.88 268.117C203.736 268.666 204.593 269.215 205.462 269.75C207.536 271.048 209.61 272.346 211.684 273.643C215.15 275.824 218.615 278.019 222.081 280.2C227.955 283.893 233.842 287.586 239.729 291.265C242.713 293.138 245.697 294.985 248.667 296.858C251.49 298.638 254.3 300.444 257.123 302.224C257.712 302.585 257.98 302.986 257.993 303.722C258.033 307.241 258.154 310.76 258.234 314.266C258.328 317.959 258.408 321.652 258.502 325.345C258.595 329.171 258.676 332.998 258.769 336.825C258.85 340.384 258.943 343.943 259.037 347.502C259.13 351.369 259.211 355.249 259.304 359.116C259.385 362.769 259.492 366.422 259.572 370.061C259.666 374.651 259.759 379.24 259.853 383.83C259.96 389.396 260.054 394.962 260.161 400.542C260.161 400.582 260.161 400.635 260.161 400.675C260.134 400.715 260.107 400.769 260.067 400.809L260.094 400.836Z" fill="#A697E3"></path><path d="M304.369 354.741C304.182 355.036 304.021 355.37 303.794 355.611C300.649 358.889 297.492 362.154 294.361 365.432C293.437 366.395 292.568 367.412 291.644 368.376C288.754 371.4 285.811 374.383 282.961 377.434C279.749 380.886 276.632 384.419 273.434 387.884C271.775 389.69 270.075 391.443 268.39 393.223C266.155 395.578 263.907 397.919 261.659 400.274C261.418 400.528 261.178 400.836 260.87 400.983C260.669 401.077 260.361 400.89 260.094 400.836C260.121 400.796 260.147 400.756 260.187 400.702C260.348 399.525 260.562 398.361 260.656 397.183C260.79 395.323 260.843 393.45 260.937 391.59C261.03 389.73 261.111 387.857 261.204 385.997C261.378 382.224 261.566 378.451 261.74 374.678C261.82 372.952 261.914 371.212 262.007 369.486C262.195 365.673 262.368 361.846 262.542 358.033C262.623 356.213 262.716 354.393 262.81 352.574C262.984 348.894 263.171 345.201 263.345 341.521C263.439 339.662 263.519 337.788 263.613 335.929C263.787 332.155 263.974 328.382 264.148 324.609C264.322 320.969 264.523 317.33 264.67 313.691C264.804 310.573 264.897 307.469 264.951 304.351C264.978 303.281 265.339 302.545 266.275 301.943C270.517 299.227 274.718 296.47 278.92 293.714C284.473 290.074 290.012 286.422 295.551 282.782C298.187 281.043 300.837 279.317 303.486 277.591C306.684 275.49 309.882 273.376 313.093 271.302C314.886 270.151 316.719 269.068 318.539 267.944C318.512 268.385 318.539 268.84 318.472 269.282C317.789 273.256 317.08 277.216 316.411 281.19C315.568 286.208 314.779 291.239 313.922 296.27C313.08 301.247 312.17 306.211 311.327 311.189C310.47 316.206 309.694 321.237 308.838 326.268C308.169 330.202 307.433 334.109 306.764 338.043C305.868 343.234 304.998 348.426 304.142 353.631C304.088 353.978 304.262 354.367 304.342 354.741L304.382 354.768L304.369 354.741Z" fill="#A697E3"></path><path d="M129.623 267.181C131.43 267.154 133.236 267.114 135.042 267.087C135.216 267.087 135.403 267.114 135.577 267.114C149.667 267.234 163.756 266.873 177.832 267.341C180.95 267.448 184.081 267.368 187.198 267.355C190.048 267.355 192.912 267.328 195.762 267.315C195.802 267.756 195.802 268.211 195.896 268.639C196.578 271.797 197.274 274.955 197.956 278.126C198.344 279.946 198.705 281.779 199.08 283.598C199.736 286.81 200.365 290.034 201.047 293.232C201.595 295.828 202.238 298.41 202.786 301.006C203.495 304.338 204.138 307.696 204.82 311.041C205.583 314.774 206.345 318.507 207.135 322.227C208.138 326.99 209.169 331.767 210.186 336.531C210.574 338.35 210.975 340.17 211.363 341.99C211.751 343.85 212.139 345.723 212.514 347.583C212.888 349.456 213.223 351.329 213.584 353.189C212.032 351.664 210.453 350.165 208.928 348.613C205.73 345.375 202.572 342.11 199.401 338.859C197.996 337.427 196.631 335.955 195.226 334.524C193.541 332.797 191.828 331.112 190.142 329.386C185.807 324.957 181.485 320.514 177.163 316.072C173.965 312.781 170.754 309.489 167.556 306.198C164.037 302.585 160.518 298.999 157.026 295.373C153.467 291.693 149.961 287.96 146.402 284.281C142.522 280.28 138.628 276.293 134.721 272.305C133.035 270.579 131.336 268.893 129.637 267.181H129.623Z" fill="#A697E3"></path><path d="M383.339 266.565C384.878 266.579 386.403 266.592 387.942 266.606C383.914 270.78 379.887 274.928 375.873 279.116C372.421 282.715 368.996 286.355 365.57 289.981C363.456 292.215 361.382 294.477 359.255 296.698C356.204 299.896 353.127 303.053 350.089 306.238C345.513 311.041 340.937 315.872 336.388 320.702C332.106 325.238 327.851 329.8 323.57 334.336C321.857 336.156 320.144 337.962 318.445 339.782C314.27 344.224 310.082 348.68 305.908 353.122C305.399 353.671 304.877 354.206 304.369 354.741L304.329 354.714C304.811 352.774 305.252 350.834 305.774 348.907C307.674 341.883 309.627 334.858 311.527 327.82C312.932 322.629 314.27 317.424 315.675 312.246C317.937 303.883 320.238 295.534 322.499 287.171C324.332 280.401 326.112 273.617 327.918 266.833C335.264 266.753 342.596 266.632 349.942 266.606C361.074 266.565 372.22 266.579 383.353 266.565H383.339Z" fill="#A697E3"></path><path d="M213.584 353.189C213.223 351.316 212.888 349.443 212.514 347.583C212.139 345.709 211.764 343.85 211.363 341.99C210.975 340.17 210.574 338.35 210.186 336.531C209.169 331.767 208.138 327.004 207.135 322.227C206.345 318.507 205.583 314.774 204.82 311.041C204.138 307.696 203.495 304.351 202.786 301.006C202.238 298.41 201.596 295.828 201.047 293.232C200.365 290.021 199.736 286.81 199.08 283.598C198.705 281.779 198.344 279.946 197.956 278.126C197.274 274.968 196.578 271.81 195.896 268.639C195.802 268.211 195.802 267.756 195.762 267.315C195.855 267.221 195.962 267.127 196.056 267.034C198.264 267.074 200.485 267.114 202.693 267.167C202.76 267.489 202.813 267.81 202.88 268.144C202.947 268.706 202.987 269.282 203.067 269.844C203.415 272.386 203.79 274.928 204.111 277.47C204.499 280.588 204.82 283.719 205.235 286.836C205.503 288.897 205.891 290.944 206.198 293.005C206.359 294.062 206.426 295.119 206.56 296.176C206.854 298.504 207.148 300.832 207.456 303.16C207.697 305.047 207.924 306.934 208.179 308.82C208.379 310.319 208.593 311.804 208.781 313.303C209.035 315.189 209.262 317.076 209.517 318.962C209.731 320.581 209.945 322.214 210.159 323.833C210.4 325.626 210.614 327.432 210.868 329.238C211.149 331.339 211.457 333.453 211.738 335.554C211.898 336.691 212.045 337.828 212.193 338.979C212.5 341.267 212.808 343.542 213.102 345.83C213.343 347.676 213.571 349.523 213.785 351.369C213.865 352.065 213.905 352.761 213.959 353.47C213.825 353.39 213.705 353.309 213.584 353.216V353.189Z" fill="#7470D2"></path><path d="M259.826 65.9689C259.746 66.397 259.612 66.8118 259.612 67.24C259.599 70.8527 259.465 74.4787 259.639 78.078C260.094 87.2568 259.572 96.449 259.92 105.628C260.268 114.767 259.84 123.919 260.187 133.044C260.522 142.102 260.107 151.147 260.455 160.192C260.736 167.511 260.522 174.817 260.683 182.123C260.683 182.497 260.843 182.872 260.923 183.247C260.495 183.715 260.067 184.183 259.572 184.705C259.05 184.156 258.662 183.755 258.274 183.354C258.274 182.912 258.301 182.457 258.301 182.016C258.274 164.715 258.261 147.401 258.194 130.1C258.127 111.729 258.02 93.3582 257.926 74.9871C257.913 72.3646 257.819 69.7287 257.739 67.1062C257.739 66.7851 257.538 66.4773 257.431 66.1562C257.752 65.3668 258.073 64.5773 258.408 63.7344C259.452 64.2294 259.478 65.1794 259.813 65.9421L259.826 65.9689Z" fill="#81A6F7"></path><path d="M193.554 335.554C193.059 335.688 192.885 335.527 193.059 335.032C193.233 335.206 193.393 335.38 193.554 335.554Z" fill="#D0DAF6"></path><path d="M196.069 267.034C195.976 267.127 195.869 267.221 195.775 267.315C192.925 267.328 190.062 267.355 187.212 267.355C184.094 267.355 180.963 267.448 177.846 267.341C163.756 266.873 149.667 267.234 135.591 267.114C135.417 267.114 135.23 267.1 135.056 267.087C135.39 267.007 135.725 266.873 136.059 266.86C137.13 266.82 138.2 266.86 139.27 266.833C142.334 266.753 145.412 266.659 148.476 266.552C150.737 266.472 153.012 266.378 155.273 266.284C157.762 266.191 160.251 266.11 162.739 266.017C164.867 265.936 167.008 265.843 169.135 265.762C171.798 265.669 174.474 265.589 177.136 265.481C179.398 265.401 181.672 265.308 183.934 265.214C186.556 265.12 189.179 265.013 191.801 264.946C192.403 264.933 192.778 264.692 193.139 264.224C198.17 257.44 203.215 250.656 208.272 243.886C214.146 236.005 220.033 228.137 225.907 220.256C231.487 212.763 237.026 205.257 242.593 197.751C245.456 193.897 248.319 190.03 251.209 186.204C251.531 185.775 251.731 185.12 252.454 185.106C253.39 186.324 254.327 187.528 255.237 188.759C255.357 188.92 255.317 189.174 255.344 189.401C255.143 189.562 254.889 189.696 254.728 189.897C251.41 194.232 248.092 198.58 244.787 202.929C242.499 205.939 240.238 208.963 237.936 211.961C234.203 216.831 230.443 221.675 226.71 226.532C223.419 230.84 220.154 235.162 216.876 239.484C213.491 243.939 210.092 248.395 206.693 252.837C204.231 256.048 201.743 259.233 199.307 262.458C198.184 263.943 197.14 265.481 196.056 267.007L196.069 267.034Z" fill="#B0DCFB"></path><path d="M255.344 189.415C255.317 189.201 255.344 188.933 255.237 188.773C254.327 187.542 253.377 186.338 252.454 185.12C250.433 182.35 248.426 179.567 246.379 176.811C238.431 166.053 230.47 155.309 222.509 144.565C222.348 144.35 222.214 144.11 222.081 143.896C222.161 143.802 222.255 143.708 222.335 143.628C227.406 149.248 232.49 154.867 237.562 160.487C241 164.287 244.426 168.087 247.864 171.9C251.089 175.473 254.314 179.045 257.538 182.618C257.779 182.886 258.047 183.113 258.301 183.367C258.689 183.769 259.077 184.183 259.599 184.719C260.08 184.197 260.522 183.728 260.95 183.26C262.984 181.012 265.018 178.778 267.038 176.53C269.928 173.319 272.792 170.094 275.682 166.896C277.582 164.782 279.522 162.681 281.422 160.567C285.329 156.232 289.209 151.897 293.116 147.575C294.254 146.317 295.418 145.1 296.568 143.869C296.675 143.976 296.782 144.083 296.876 144.177C294.882 146.906 292.889 149.649 290.882 152.365C285.168 160.112 279.455 167.846 273.728 175.58C271.842 178.122 269.955 180.664 268.082 183.207C267.814 183.568 267.587 183.943 267.333 184.317C266.249 185.722 265.152 187.127 264.095 188.559C263.921 188.786 263.934 189.134 263.854 189.428C263.64 189.549 263.359 189.629 263.211 189.803C262.636 190.526 262.088 191.262 261.552 192.011C260.977 192.827 260.442 193.67 259.88 194.5C259.706 194.5 259.545 194.5 259.371 194.5C258.234 192.894 257.097 191.302 255.946 189.709C255.839 189.562 255.571 189.522 255.384 189.442L255.344 189.415Z" fill="#5E81D9"></path><path d="M222.335 143.628C222.255 143.722 222.161 143.815 222.081 143.895C221.371 142.905 220.676 141.915 219.967 140.925C220.756 141.835 221.545 142.731 222.335 143.628Z" fill="#81A6F7"></path><path d="M219.966 140.938L219.913 140.898L219.953 140.938H219.966Z" fill="#81A6F7"></path><path d="M263.84 189.415C263.921 189.121 263.921 188.773 264.081 188.545C265.138 187.114 266.235 185.722 267.319 184.304C267.988 185.013 268.697 185.682 269.299 186.431C272.497 190.405 275.682 194.392 278.866 198.38C281.516 201.711 284.138 205.07 286.801 208.402C289.129 211.318 291.497 214.182 293.825 217.099C296.154 220.002 298.428 222.959 300.756 225.863C303.151 228.833 305.587 231.763 307.982 234.747C310.31 237.651 312.598 240.594 314.926 243.511C317.254 246.415 319.623 249.291 321.951 252.208C323.556 254.215 325.122 256.263 326.727 258.27C327.918 259.768 329.136 261.24 330.34 262.712C330.835 263.327 331.41 263.648 332.28 263.662C334.863 263.675 337.432 263.809 340.014 263.916C341.606 263.983 343.198 264.09 344.804 264.17C346.717 264.264 348.617 264.344 350.531 264.451C352.217 264.532 353.903 264.612 355.589 264.719C357.89 264.879 360.178 265.067 362.479 265.241C362.52 265.241 362.573 265.241 362.613 265.241C364.928 265.334 367.229 265.428 369.544 265.508C372.033 265.602 374.522 265.682 377.01 265.776C378.79 265.843 380.556 265.95 382.336 266.044C382.75 266.07 383.286 265.896 383.379 266.565C372.247 266.565 361.101 266.565 349.969 266.606C342.623 266.632 335.291 266.753 327.945 266.833C327.784 266.726 327.611 266.632 327.45 266.525C327.115 266.003 326.821 265.455 326.433 264.973C324.961 263.18 323.463 261.441 321.991 259.648C319.556 256.704 317.134 253.747 314.712 250.79C313.16 248.903 311.621 247.003 310.069 245.117C308.677 243.431 307.286 241.772 305.894 240.099C304.396 238.28 302.897 236.46 301.399 234.64C299.954 232.887 298.509 231.148 297.063 229.395C295.565 227.575 294.066 225.769 292.568 223.949C290.788 221.782 289.035 219.614 287.242 217.46C285.677 215.573 284.071 213.727 282.519 211.84C279.83 208.589 277.18 205.297 274.504 202.033C271.628 198.527 268.751 195.021 265.861 191.542C265.245 190.793 264.536 190.124 263.88 189.415H263.84Z" fill="#B0DCFB"></path><path d="M296.863 144.163C296.756 144.056 296.649 143.949 296.555 143.855C297.358 142.972 298.174 142.089 298.977 141.206C298.281 142.183 297.572 143.173 296.876 144.163H296.863Z" fill="#7EA4F7"></path><path d="M298.977 141.205C298.977 141.205 299.043 141.125 299.083 141.099C299.083 141.125 299.083 141.152 299.056 141.165C299.03 141.179 298.99 141.192 298.963 141.205H298.977Z" fill="#7EA4F7"></path><path d="M202.893 268.131C202.826 267.81 202.773 267.489 202.706 267.154C202.813 267.034 202.92 266.913 203.014 266.793C203.429 267.127 203.79 267.515 204.245 267.783C207.831 269.911 211.443 272.025 215.043 274.139C220.207 277.176 225.386 280.213 230.55 283.264C234.377 285.525 238.19 287.786 242.017 290.061C245.764 292.282 249.497 294.517 253.257 296.724C255.892 298.29 258.542 299.829 261.191 301.367C261.405 301.367 261.686 301.474 261.847 301.367C262.69 300.819 263.519 300.244 264.322 299.628C264.509 299.481 264.59 299.2 264.71 298.972C265.232 298.732 265.78 298.544 266.276 298.25C267.921 297.286 269.554 296.283 271.186 295.293C275.374 292.777 279.575 290.262 283.763 287.746C288.487 284.91 293.21 282.073 297.933 279.237C301.934 276.841 305.935 274.446 309.949 272.051C312.892 270.299 315.836 268.559 318.78 266.806L318.846 266.78C318.753 267.141 318.646 267.502 318.552 267.877C316.732 268.987 314.899 270.084 313.106 271.235C309.882 273.309 306.697 275.423 303.499 277.524C300.85 279.25 298.214 280.989 295.565 282.715C290.025 286.355 284.486 290.008 278.933 293.647C274.732 296.403 270.517 299.173 266.289 301.876C265.352 302.478 264.991 303.214 264.964 304.284C264.911 307.402 264.804 310.52 264.683 313.624C264.536 317.263 264.335 320.903 264.161 324.542C263.974 328.315 263.8 332.088 263.626 335.862C263.533 337.722 263.452 339.595 263.359 341.455C263.185 345.134 262.997 348.827 262.823 352.507C262.73 354.326 262.649 356.146 262.556 357.966C262.369 361.779 262.195 365.606 262.021 369.419C261.94 371.145 261.847 372.885 261.753 374.611C261.566 378.384 261.392 382.157 261.218 385.93C261.124 387.79 261.044 389.664 260.95 391.523C260.857 393.383 260.803 395.257 260.669 397.116C260.576 398.294 260.361 399.458 260.201 400.635C260.201 400.595 260.201 400.542 260.201 400.502C260.094 394.935 260 389.369 259.893 383.79C259.799 379.2 259.719 374.611 259.612 370.021C259.532 366.369 259.438 362.716 259.345 359.076C259.251 355.209 259.171 351.329 259.077 347.462C258.997 343.903 258.903 340.344 258.809 336.785C258.716 332.958 258.635 329.131 258.542 325.305C258.448 321.612 258.368 317.919 258.274 314.226C258.194 310.707 258.073 307.188 258.033 303.682C258.033 302.96 257.752 302.545 257.164 302.184C254.327 300.417 251.531 298.598 248.707 296.818C245.737 294.945 242.74 293.085 239.769 291.225C233.882 287.532 228.008 283.853 222.121 280.16C218.655 277.979 215.19 275.784 211.724 273.603C209.65 272.306 207.576 271.008 205.503 269.71C204.646 269.175 203.776 268.613 202.92 268.077L202.893 268.131Z" fill="#AED9FC"></path><path d="M318.539 267.917C318.632 267.556 318.739 267.194 318.833 266.82C321.696 266.713 324.546 266.606 327.41 266.512C327.57 266.619 327.744 266.713 327.905 266.82C326.098 273.603 324.319 280.387 322.486 287.158C320.225 295.52 317.923 303.87 315.662 312.232C314.257 317.424 312.919 322.629 311.514 327.807C309.614 334.845 307.674 341.856 305.761 348.894C305.239 350.821 304.797 352.761 304.315 354.701C304.249 354.326 304.061 353.938 304.115 353.59C304.971 348.386 305.841 343.194 306.737 338.003C307.42 334.069 308.142 330.162 308.811 326.228C309.668 321.21 310.444 316.179 311.3 311.148C312.143 306.171 313.053 301.207 313.896 296.229C314.752 291.212 315.541 286.181 316.384 281.15C317.053 277.176 317.763 273.215 318.445 269.242C318.525 268.8 318.499 268.358 318.512 267.903L318.539 267.917Z" fill="#7470D2"></path><path d="M203.027 266.806C202.92 266.927 202.813 267.047 202.719 267.167C200.498 267.127 198.291 267.087 196.083 267.034C197.167 265.522 198.21 263.969 199.334 262.484C201.769 259.26 204.258 256.075 206.72 252.864C210.119 248.422 213.517 243.966 216.902 239.51C220.181 235.202 223.445 230.867 226.737 226.558C230.47 221.688 234.23 216.844 237.963 211.987C240.264 208.99 242.526 205.966 244.814 202.956C248.119 198.607 251.437 194.258 254.755 189.923C254.916 189.723 255.157 189.589 255.371 189.428C255.558 189.522 255.826 189.549 255.933 189.696C257.097 191.288 258.221 192.88 259.358 194.486C259.358 194.58 259.358 194.673 259.345 194.767C258.716 195.583 258.1 196.386 257.471 197.202C254.488 201.029 251.504 204.869 248.507 208.682C244.72 213.526 240.907 218.356 237.12 223.2C234.123 227.027 231.139 230.853 228.142 234.68C224.355 239.524 220.542 244.354 216.755 249.198C214.039 252.663 211.31 256.142 208.593 259.621C206.733 262.016 204.887 264.411 203.041 266.819L203.027 266.806Z" fill="#7EA4F7"></path><path d="M327.41 266.525C324.546 266.632 321.696 266.739 318.833 266.833L318.766 266.86C318.726 266.686 318.739 266.472 318.632 266.351C317.281 264.706 315.93 263.06 314.565 261.414C312.718 259.193 310.858 256.985 309.025 254.764C307.232 252.57 305.48 250.322 303.673 248.127C301.813 245.866 299.9 243.645 298.04 241.37C295.873 238.721 293.772 236.032 291.604 233.382C289.744 231.108 287.831 228.9 285.985 226.625C283.817 223.976 281.716 221.287 279.549 218.637C277.689 216.363 275.775 214.142 273.929 211.88C272.123 209.686 270.383 207.452 268.577 205.244C266.222 202.354 263.827 199.504 261.445 196.627C260.91 195.904 260.361 195.195 259.826 194.473C260.388 193.643 260.923 192.8 261.499 191.984C262.034 191.235 262.583 190.499 263.158 189.776C263.305 189.589 263.586 189.522 263.8 189.402C264.469 190.111 265.165 190.78 265.78 191.529C268.671 195.021 271.561 198.514 274.424 202.019C277.1 205.284 279.763 208.562 282.439 211.827C283.991 213.713 285.597 215.56 287.162 217.447C288.955 219.601 290.708 221.782 292.487 223.936C293.986 225.756 295.485 227.575 296.983 229.382C298.428 231.135 299.873 232.874 301.318 234.627C302.817 236.447 304.315 238.266 305.814 240.086C307.206 241.758 308.611 243.431 309.989 245.104C311.541 246.99 313.08 248.89 314.632 250.777C317.053 253.734 319.475 256.691 321.91 259.634C323.382 261.414 324.894 263.167 326.353 264.96C326.741 265.428 327.035 265.99 327.37 266.512L327.41 266.525Z" fill="#7EA4F7"></path><path d="M259.853 194.486C260.388 195.209 260.937 195.918 261.472 196.64C261.378 197.055 261.204 197.483 261.218 197.898C261.271 199.985 261.392 202.073 261.472 204.147C261.566 206.769 261.646 209.392 261.74 212.001C261.82 214.396 261.914 216.791 262.007 219.186C262.101 221.808 262.181 224.431 262.275 227.04C262.355 229.395 262.235 231.737 262.489 234.105C262.783 236.794 262.716 239.524 262.81 242.227C262.89 244.622 262.984 247.017 263.078 249.412C263.171 252.115 263.252 254.831 263.345 257.534C263.426 259.795 263.533 262.056 263.613 264.317C263.707 267.074 263.787 269.83 263.88 272.573C263.961 274.928 264.068 277.283 264.148 279.624C264.255 282.729 264.335 285.846 264.416 288.95C264.509 292.282 264.616 295.614 264.71 298.945C264.59 299.173 264.509 299.454 264.322 299.601C263.519 300.203 262.69 300.792 261.847 301.341C261.699 301.434 261.419 301.341 261.191 301.341C261.124 296.845 261.057 292.336 260.977 287.84C260.883 282.22 260.803 276.6 260.709 270.994C260.616 265.16 260.522 259.313 260.428 253.479C260.348 248.087 260.254 242.695 260.161 237.303C260.067 231.469 259.973 225.622 259.893 219.788C259.853 217.152 259.893 214.516 259.84 211.894C259.759 206.542 259.679 201.189 259.572 195.851C259.572 195.476 259.398 195.115 259.304 194.74C259.304 194.647 259.304 194.553 259.318 194.459C259.492 194.459 259.652 194.459 259.826 194.459L259.853 194.486Z" fill="#7DACF6"></path><path d="M259.331 194.767C259.425 195.142 259.585 195.503 259.599 195.878C259.706 201.23 259.799 206.568 259.866 211.92C259.907 214.556 259.866 217.192 259.92 219.815C260 225.649 260.094 231.496 260.187 237.33C260.268 242.722 260.361 248.114 260.455 253.506C260.549 259.34 260.642 265.187 260.736 271.021C260.83 276.641 260.91 282.26 261.004 287.867C261.071 292.362 261.151 296.872 261.218 301.367C258.568 299.815 255.919 298.276 253.283 296.724C249.537 294.503 245.79 292.282 242.044 290.061C238.217 287.8 234.404 285.525 230.577 283.264C225.412 280.213 220.234 277.189 215.069 274.139C211.47 272.024 207.871 269.91 204.272 267.783C203.83 267.515 203.455 267.127 203.041 266.793C204.887 264.398 206.733 261.989 208.593 259.594C211.31 256.115 214.026 252.636 216.755 249.171C220.555 244.327 224.355 239.497 228.142 234.653C231.139 230.827 234.123 227 237.12 223.173C240.907 218.33 244.72 213.499 248.507 208.656C251.504 204.829 254.488 201.002 257.471 197.175C258.1 196.373 258.716 195.556 259.345 194.74L259.331 194.767Z" fill="#E5F2FD"></path><path d="M264.71 299.013C264.616 295.681 264.509 292.349 264.416 289.017C264.322 285.913 264.242 282.796 264.148 279.691C264.068 277.337 263.974 274.982 263.88 272.64C263.787 269.884 263.706 267.127 263.613 264.384C263.533 262.123 263.426 259.862 263.345 257.601C263.252 254.898 263.171 252.182 263.078 249.479C262.997 247.084 262.904 244.689 262.81 242.294C262.716 239.591 262.783 236.861 262.489 234.172C262.221 231.804 262.355 229.462 262.275 227.107C262.181 224.485 262.101 221.862 262.007 219.253C261.927 216.858 261.833 214.463 261.74 212.068C261.646 209.445 261.566 206.823 261.472 204.214C261.392 202.126 261.285 200.039 261.218 197.965C261.218 197.55 261.378 197.135 261.472 196.707C263.854 199.584 266.235 202.447 268.604 205.324C270.397 207.518 272.149 209.766 273.956 211.961C275.816 214.222 277.729 216.443 279.575 218.718C281.743 221.367 283.844 224.056 286.011 226.706C287.871 228.98 289.785 231.188 291.631 233.463C293.799 236.112 295.899 238.801 298.067 241.451C299.927 243.725 301.84 245.947 303.7 248.208C305.506 250.402 307.246 252.637 309.052 254.844C310.885 257.079 312.745 259.287 314.592 261.494C315.956 263.127 317.308 264.772 318.659 266.432C318.753 266.552 318.753 266.766 318.793 266.94C315.849 268.693 312.906 270.432 309.962 272.185C305.961 274.58 301.947 276.975 297.947 279.37C293.223 282.207 288.5 285.044 283.777 287.88C279.589 290.396 275.387 292.911 271.199 295.427C269.567 296.403 267.935 297.42 266.289 298.384C265.794 298.678 265.245 298.865 264.723 299.106L264.71 299.013Z" fill="#9AB8F9"></path></g></svg> 